<?xml version="1.0" encoding="utf-8"?>
<!-- Generator: Adobe Illustrator 26.3.1, SVG Export Plug-In . SVG Version: 6.00 Build 0)  -->
<svg version="1.1" id="_이어_1" xmlns="http://www.w3.org/2000/svg" xmlns:xlink="http://www.w3.org/1999/xlink" x="0px" y="0px"
	 viewBox="0 0 354.4 50.5" style="enable-background:new 0 0 354.4 50.5;" xml:space="preserve">
<style type="text/css">
	.st0{fill:#B1B0B1;}
	.st1{enable-background:new    ;}
</style>
<g>
	<g>
		<path class="st0" d="M25.2,11c1.7,1.3,4,2.4,6.7,3.1c1.2,0.3,2.4,0.5,3.5,0.6v17.7c0,3.3-1.6,4-1.6,4l-8.6,4.2l-8.6-4.2
			c0,0-1.6-0.7-1.6-4V14.6c1.1-0.1,2.3-0.3,3.5-0.6C21.2,13.4,23.5,12.3,25.2,11 M25.2,10l-0.5,0.4c-1.7,1.3-4,2.3-6.4,2.9
			c-1.1,0.3-2.3,0.5-3.4,0.5l-0.7,0.1v18.5c0,1.5,0.3,2.8,1,3.7c0.5,0.7,1,1,1.1,1l8.6,4.2l0.3,0.2l0.3-0.2l8.6-4.2
			c0.1-0.1,0.6-0.3,1.1-1c0.6-0.9,1-2.2,1-3.7V13.9l-0.7-0.1c-1.1-0.1-2.2-0.3-3.4-0.5c-2.5-0.6-4.7-1.6-6.4-2.9L25.2,10L25.2,10z"
			/>
		<g>
			<path class="st0" d="M21.5,17.5c-0.1-0.2-0.1-0.5-0.1-0.7v-0.2h0.5v-0.4h-1.4v0.4H21v0.2c0,0.3,0,0.5-0.1,0.8s-0.3,0.5-0.5,0.6
				l0,0l0.3,0.2l0,0c0.1-0.1,0.3-0.2,0.4-0.4c0.1-0.1,0.2-0.3,0.2-0.4c0,0.1,0.1,0.2,0.2,0.4c0.1,0.1,0.2,0.3,0.3,0.4l0,0l0.3-0.2
				l0,0l0,0C21.7,18,21.6,17.8,21.5,17.5L21.5,17.5z"/>
			<rect x="22.7" y="16" class="st0" width="0.4" height="3.1"/>
			<polygon class="st0" points="22.1,16.9 21.6,16.9 21.6,17.3 22.1,17.3 22.1,19.1 22.5,19.1 22.5,16 22.1,16 			"/>
			<path class="st0" d="M24.9,18c-0.1,0-0.3,0-0.4,0h-0.2v-1.5H25v-0.4h-1.2v2.2h0.6c0.1,0,0.3,0,0.4,0s0.3,0,0.4-0.1l0,0v-0.4l0,0
				C25.1,18,25,18,24.9,18L24.9,18z"/>
			<polygon class="st0" points="26,17.1 25.8,17.1 25.8,16 25.4,16 25.4,19.1 25.8,19.1 25.8,17.5 26,17.5 26,19.1 26.4,19.1 
				26.4,16 26,16 			"/>
			<path class="st0" d="M32.5,17.2v0.1c0,0.2,0,0.5-0.1,0.6h0.4c0-0.2,0-0.5,0.1-0.8V17c0-0.3,0-0.6,0-0.9h-2.3v0.4h1.9
				C32.6,16.8,32.6,17,32.5,17.2L32.5,17.2z"/>
			<polygon class="st0" points="32.3,18.5 32.3,17.4 31.9,17.4 31.9,18.5 31.5,18.5 31.5,17.4 31.1,17.4 31.1,18.5 30.4,18.5 
				30.4,18.9 33.4,18.9 33.4,18.5 			"/>
			<polygon class="st0" points="29.6,16 29.2,16 29.2,17.9 29.6,17.9 29.6,17.2 30,17.2 30,16.8 29.6,16.8 			"/>
			<polygon class="st0" points="28.9,16.3 28.2,16.3 28.2,15.9 27.8,15.9 27.8,16.3 27.1,16.3 27.1,16.6 28.9,16.6 			"/>
			<path class="st0" d="M28.6,17.7c0.2-0.1,0.2-0.3,0.2-0.5s-0.1-0.3-0.2-0.5c-0.2-0.1-0.4-0.2-0.6-0.2s-0.4,0.1-0.6,0.2
				s-0.2,0.3-0.2,0.5s0.1,0.3,0.2,0.5c0.2,0.1,0.4,0.2,0.6,0.2S28.4,17.9,28.6,17.7z M28.3,17.5c-0.1,0.1-0.2,0.1-0.3,0.1
				s-0.2,0-0.3-0.1c-0.1-0.1-0.1-0.1-0.1-0.2s0-0.1,0.1-0.2S27.9,17,28,17s0.2,0,0.3,0.1c0.1,0.1,0.1,0.1,0.1,0.2
				S28.4,17.4,28.3,17.5z"/>
			<rect x="19.2" y="16" class="st0" width="0.4" height="2.2"/>
			<path class="st0" d="M18.5,17.5c0.2-0.2,0.2-0.4,0.2-0.6s-0.1-0.4-0.2-0.6s-0.4-0.2-0.6-0.2s-0.4,0.1-0.6,0.2S17,16.7,17,16.9
				s0.1,0.4,0.2,0.6s0.4,0.2,0.6,0.2S18.4,17.6,18.5,17.5z M17.5,16.9c0-0.1,0-0.2,0.1-0.3c0.1-0.1,0.2-0.1,0.3-0.1s0.2,0,0.3,0.1
				c0.1,0.1,0.1,0.2,0.1,0.3s0,0.2-0.1,0.3c-0.1,0.1-0.2,0.1-0.3,0.1s-0.2,0-0.3-0.1C17.5,17.1,17.5,17,17.5,16.9z"/>
			<polygon class="st0" points="18,18 17.6,18 17.6,19.1 19.7,19.1 19.7,18.8 18,18.8 			"/>
			<polygon class="st0" points="27.5,18.5 29.2,18.5 29.2,19.1 29.6,19.1 29.6,18.1 27.5,18.1 			"/>
		</g>
		<g>
			<path class="st0" d="M22.5,20.6v5.3h1.8v-3.6h1c1,0,0.9,0.9,0.9,0.9v0.4h1.7v-1.2c0,0-0.1-1.8-1.9-1.8
				C25.9,20.6,22.5,20.6,22.5,20.6z"/>
			<path class="st0" d="M26.1,26h3.6v1c0,1-0.9,0.9-0.9,0.9h-0.4v1.7h1.2c0,0,1.8-0.1,1.8-1.9v-3.4h-5.3L26.1,26L26.1,26z"/>
			<path class="st0" d="M27.9,27.8h-1.8v3.6h-1c-1,0-0.9-0.9-0.9-0.9v-0.4h-1.7v1.2c0,0,0.1,1.8,1.9,1.8h3.4
				C27.9,33.1,27.9,27.8,27.9,27.8z"/>
			<path class="st0" d="M18.9,29.5h5.3v-1.8h-3.6v-1c0-1,0.9-0.9,0.9-0.9h0.4v-1.7h-1.2c0,0-1.8,0.1-1.8,1.9
				C18.9,26.1,18.9,29.5,18.9,29.5z"/>
		</g>
		<g>
			<polygon class="st0" points="19.3,33.8 18.9,33.6 17.9,35.8 17.8,35.9 18.3,36.1 19.3,33.9 			"/>
			<polygon class="st0" points="21.5,34.8 21,34.6 20.3,36.1 20.4,34.4 20.4,34.3 19.9,34.1 18.8,36.3 18.8,36.3 19.2,36.5 19.9,35 
				19.9,36.8 19.9,36.8 20.4,37.1 21.4,34.9 			"/>
			<path class="st0" d="M22.9,35.6l-0.4-0.2l-0.7,1.5c-0.1,0.3-0.2,0.4-0.4,0.3c-0.1-0.1-0.1-0.2,0-0.4c0,0,0,0,0-0.1v-0.1L21,36.4
				v0.1c-0.1,0.2-0.2,0.4-0.1,0.6c0,0.2,0.2,0.4,0.4,0.5c0.1,0.1,0.3,0.1,0.4,0.1s0.1,0,0.2,0c0.2-0.1,0.3-0.2,0.4-0.4L22.9,35.6
				L22.9,35.6L22.9,35.6z"/>
			<polygon class="st0" points="22.4,38 22.3,38.1 23.6,38.7 23.8,38.3 23,37.9 23.2,37.3 24,37.7 24.2,37.3 23.4,36.9 23.6,36.4 
				24.5,36.8 24.6,36.4 23.4,35.8 			"/>
			<path class="st0" d="M27.2,35.7l-0.4,0.2l0.7,1.4c0.1,0.2,0.1,0.3,0.1,0.5c0,0.1-0.1,0.1-0.2,0.2s-0.2,0.1-0.3,0
				c-0.1,0-0.2-0.2-0.3-0.4l-0.7-1.4l-0.4,0.2l0.7,1.4c0.1,0.3,0.3,0.5,0.5,0.6c0.1,0,0.2,0.1,0.3,0.1c0.1,0,0.3,0,0.4-0.1
				c0.3-0.1,0.4-0.3,0.5-0.5c0-0.2,0-0.5-0.1-0.8L27.2,35.7L27.2,35.7z"/>
			<polygon class="st0" points="28.9,34.9 29.6,36.4 28.2,35.2 27.7,35.5 28.8,37.7 29.2,37.5 28.4,36 29.8,37.2 29.9,37.2 30.4,37 
				29.3,34.7 			"/>
			
				<rect x="30.2" y="34.2" transform="matrix(0.9018 -0.4322 0.4322 0.9018 -12.3388 16.6382)" class="st0" width="0.5" height="2.5"/>
			<polygon class="st0" points="32.1,33.4 32.1,33.3 31.7,33.5 32,35.3 30.8,33.9 30.4,34.2 32,36 32.1,36.1 32.5,35.9 			"/>
		</g>
		<path class="st0" d="M25.2,8c2.3,0,4.6,0.5,6.7,1.4c1,0.4,2,1,2.9,1.6s1.8,1.3,2.5,2.1s1.5,1.6,2.1,2.6c0.6,0.9,1.2,1.9,1.6,2.9
			c0.9,2.1,1.4,4.4,1.4,6.7S41.9,29.9,41,32c-0.4,1-1,2-1.6,2.9s-1.3,1.8-2.1,2.5s-1.6,1.5-2.5,2.1s-1.9,1.2-2.9,1.6
			c-2.1,0.9-4.4,1.4-6.7,1.4s-4.6-0.5-6.7-1.4c-1-0.4-2-1-2.9-1.6s-1.8-1.3-2.6-2.1s-1.5-1.6-2.1-2.5c-0.6-0.9-1.1-1.9-1.6-3
			C8.4,29.8,8,27.6,8,25.2s0.5-4.6,1.4-6.7c0.4-1,1-2,1.6-2.9c0.6-0.9,1.3-1.8,2.1-2.6s1.6-1.5,2.6-2.1c0.9-0.6,1.9-1.2,2.9-1.6
			C20.6,8.4,22.9,8,25.2,8 M25.2,7.2c-2.4,0-4.8,0.5-7,1.4c-1.1,0.4-2.1,1-3.1,1.7c-1,0.6-1.9,1.4-2.7,2.2s-1.6,1.7-2.2,2.7
			c-0.6,1-1.2,2-1.7,3.1c-0.9,2.2-1.4,4.6-1.4,7s0.5,4.8,1.4,7c0.4,1.1,1,2.1,1.7,3.1c0.6,1,1.4,1.8,2.2,2.7
			c0.8,0.8,1.7,1.6,2.7,2.2c1,0.7,2,1.2,3.1,1.7c2.2,0.9,4.6,1.4,7,1.4s4.8-0.5,7-1.4c1.1-0.5,2.1-1,3.1-1.7s1.8-1.4,2.7-2.2
			c0.8-0.8,1.6-1.7,2.2-2.7c0.7-1,1.2-2,1.7-3.1c0.9-2.2,1.4-4.6,1.4-7s-0.5-4.8-1.4-7c-0.5-1.1-1-2.1-1.7-3.1s-1.4-1.9-2.2-2.7
			s-1.7-1.6-2.7-2.2c-1-0.6-2-1.2-3.1-1.7C30,7.7,27.7,7.2,25.2,7.2L25.2,7.2z"/>
		<g>
			<polygon class="st0" points="14.9,41.8 14.6,41.5 14.1,42.1 13.6,41.7 13.3,42 13.9,42.4 13.4,43.1 13.3,43.1 13.7,43.4 			"/>
			<path class="st0" d="M11.5,41.6c0.1,0,0.4,0.1,0.6,0.1c0.2,0,0.4,0,0.4-0.1c0,0.1,0,0.3,0.1,0.4c0.1,0.2,0.1,0.4,0.2,0.5l0,0
				l0.4-0.1l0,0c-0.1-0.2-0.2-0.4-0.3-0.6c0-0.2,0-0.4,0.1-0.5l0,0l0.5,0.4l0.2-0.3l-1.4-1.1l0,0l-0.2,0.3l0.5,0.4l0,0
				c-0.1,0.1-0.2,0.2-0.5,0.3c-0.2,0-0.6,0-0.8-0.1l0,0L11.5,41.6L11.5,41.6L11.5,41.6z"/>
			<path class="st0" d="M13.4,43.4c-0.1-0.2-0.3-0.5-0.7-0.7s-0.6-0.4-0.9-0.4c-0.2,0-0.4,0-0.6,0.2c-0.1,0.2-0.1,0.4,0,0.6
				c0.1,0.2,0.3,0.5,0.7,0.7c0.3,0.2,0.6,0.4,0.9,0.4h0.1c0.2,0,0.3-0.1,0.4-0.2l0,0C13.4,43.8,13.4,43.6,13.4,43.4L13.4,43.4z
				 M12.5,43c0.4,0.3,0.6,0.6,0.4,0.7c-0.1,0.1-0.2,0.1-0.3,0c-0.1,0-0.3-0.1-0.5-0.3c-0.2-0.1-0.3-0.3-0.4-0.4
				c-0.1-0.1-0.1-0.2,0-0.3C11.8,42.6,12.1,42.7,12.5,43z"/>
			<polygon class="st0" points="17,45.1 17,45.1 17.4,45.3 18.3,43.5 18.3,43.5 17.9,43.3 			"/>
			<path class="st0" d="M14.9,44.1c0.1,0,0.3,0,0.5,0s0.3-0.1,0.5-0.2c0.1,0.2,0.1,0.3,0.2,0.4c0.1,0.2,0.2,0.3,0.3,0.4l0,0l0.4-0.2
				l0,0c-0.1-0.1-0.2-0.2-0.3-0.5c-0.1-0.2-0.1-0.5,0-0.7l0,0l0.6,0.3l0.2-0.4l-1.6-0.8l0,0l-0.2,0.4l0.6,0.3l0,0
				c-0.1,0.2-0.3,0.4-0.6,0.5c-0.2,0.1-0.5,0.1-0.7,0.1l0,0L14.9,44.1L14.9,44.1L14.9,44.1z"/>
			<polygon class="st0" points="15.1,44.3 14.9,44.7 16.8,45.6 16.4,46.3 16.4,46.3 16.8,46.5 17.4,45.4 17.4,45.4 			"/>
			<path class="st0" d="M22.6,45.7c0.1,0.2,0.2,0.3,0.3,0.4c0.2,0.2,0.4,0.3,0.5,0.4l0,0l0.3-0.3l0,0c-0.2-0.1-0.4-0.3-0.6-0.5
				s-0.2-0.5-0.2-0.7v-0.2h-0.5V45c0,0.3-0.1,0.5-0.4,0.7c-0.2,0.2-0.4,0.3-0.7,0.4l0,0l0.3,0.4l0,0c0.2-0.1,0.3-0.2,0.5-0.3
				C22.3,46,22.5,45.8,22.6,45.7L22.6,45.7z"/>
			<path class="st0" d="M23.2,46.6c-0.4,0-0.7,0-1,0.1c-0.2,0.1-0.4,0.3-0.4,0.5s0.1,0.4,0.3,0.5c0.2,0.2,0.5,0.2,1,0.3
				c0.1,0,0.2,0,0.3,0c0.6,0,1-0.2,1-0.6C24.5,47,24,46.7,23.2,46.6L23.2,46.6z M22.6,47c0.1,0,0.2,0,0.3,0c0.1,0,0.2,0,0.2,0
				c0.2,0,0.4,0.1,0.6,0.2c0.1,0,0.2,0.1,0.2,0.2c0,0.1-0.1,0.2-0.2,0.2s-0.4,0-0.6,0s-0.4-0.1-0.6-0.2c-0.1,0-0.2-0.1-0.2-0.2
				S22.5,47.1,22.6,47z"/>
			<polygon class="st0" points="24.1,45.3 23.5,45.2 23.4,45.7 24.1,45.7 24,46.7 24,46.7 24.5,46.7 24.7,44.8 24.7,44.7 24.2,44.7 
							"/>
			
				<rect x="28" y="44.5" transform="matrix(0.9961 -8.819916e-02 8.819916e-02 0.9961 -3.8941 2.6685)" class="st0" width="0.5" height="1.8"/>
			<polygon class="st0" points="26.7,47.6 26.7,47.4 28.6,47.3 28.6,47.3 28.6,46.4 26.1,46.6 26.1,46.6 26.2,47 28.1,46.8 28.1,47 
				26.2,47.1 26.2,47.1 26.2,48 28.8,47.8 28.8,47.8 28.7,47.4 			"/>
			<path class="st0" d="M26.6,45.8c0.1,0.1,0.2,0.2,0.4,0.3c0.2,0.1,0.3,0.2,0.5,0.2l0,0l0.2-0.4l0,0c-0.2,0-0.4-0.1-0.6-0.3
				s-0.3-0.4-0.4-0.6v-0.3h-0.5V45c0,0.2-0.1,0.5-0.2,0.7c-0.2,0.2-0.3,0.3-0.6,0.5l0,0l0.4,0.3l0,0c0.2-0.1,0.3-0.2,0.5-0.3
				C26.4,46,26.5,45.9,26.6,45.8L26.6,45.8z"/>
			<polygon class="st0" points="33.7,45.9 33.4,45.3 33.4,45.3 33,45.5 33.4,46.5 33.5,46.5 35.8,45.4 35.8,45.4 35.7,45 			"/>
			<path class="st0" d="M35.5,44l-0.2-0.4l-0.5,0.2l0,0c0-0.1-0.1-0.3-0.1-0.6c0-0.2-0.2-0.7-0.2-0.8l0,0l-2.4,1.1l0,0l0.2,0.4
				l1.9-0.9c0.1,0.3,0.2,0.7,0.3,0.9l-2.1,1l0,0l0.2,0.4L35.5,44L35.5,44L35.5,44z"/>
			<polygon class="st0" points="39.3,42.6 37.6,43.8 37.2,43.2 36.8,43.5 37.5,44.4 39.6,42.9 			"/>
			<path class="st0" d="M37.5,42.2l0.6-0.4l0.5,0.7l0.4-0.3l-1.4-2l0,0l-0.4,0.3l0.3,0.4l-0.6,0.4l-0.2-0.2l-1.4,1l1,1.4l0,0l1.4-1
				L37.5,42.2L37.5,42.2z M37.1,41.7l0.6-0.4l0.2,0.2l-0.6,0.4L37.1,41.7z M36.6,41.7l0.5,0.7l-0.6,0.4L36,42.2L36.6,41.7z"/>
		</g>
		<g>
			<path class="st0" d="M4.7,30.4c0,0,2.1-1.5,1.2-4.8c0,0-1.4,0.8-1.5,2.8c-0.7-1.9-2.3-2.2-2.3-2.2C2.2,29.6,4.7,30.4,4.7,30.4
				L4.7,30.4z"/>
			<path class="st0" d="M6.5,29.8c0,0-1.2,1.1-0.8,3.1C4.6,31.1,3,31.1,3,31.1c0.8,3.3,3.4,3.6,3.4,3.6S8.1,32.7,6.5,29.8z"/>
			<path class="st0" d="M7.8,36.9c-1.4-1.5-2.9-1.2-2.9-1.2c1.4,3.1,4,2.9,4,2.9s1.3-2.2-0.8-4.9C8.1,33.8,7.1,35.1,7.8,36.9z"/>
		</g>
		<g>
			<path class="st0" d="M45.8,30.4c0,0-2.1-1.5-1.2-4.8c0,0,1.4,0.8,1.5,2.8c0.7-1.9,2.3-2.2,2.3-2.2C48.2,29.6,45.8,30.4,45.8,30.4
				L45.8,30.4z"/>
			<path class="st0" d="M44,29.8c0,0,1.2,1.1,0.8,3.1c1.1-1.7,2.7-1.7,2.7-1.7c-0.8,3.3-3.4,3.6-3.4,3.6S42.3,32.7,44,29.8z"/>
			<path class="st0" d="M42.7,36.9c1.4-1.5,3-1.2,3-1.2c-1.4,3.1-4,2.9-4,2.9s-1.3-2.2,0.8-4.9C42.4,33.8,43.4,35.1,42.7,36.9z"/>
		</g>
		<g>
			<path class="st0" d="M20.3,45.7c0,0.3-0.2,0.5-0.5,0.5s-0.5-0.2-0.5-0.5s0.2-0.5,0.5-0.5S20.3,45.4,20.3,45.7z"/>
			<path class="st0" d="M31.1,45.7c0,0.3-0.2,0.5-0.5,0.5s-0.5-0.2-0.5-0.5s0.2-0.5,0.5-0.5S31.1,45.4,31.1,45.7z"/>
		</g>
		<path class="st0" d="M25.2,0C11.3,0,0,11.3,0,25.2s11.3,25.2,25.2,25.2s25.2-11.3,25.2-25.2S39.2,0,25.2,0z M25.2,49.4
			C11.9,49.4,1,38.6,1,25.2S11.9,1,25.2,1s24.2,10.8,24.2,24.2S38.6,49.4,25.2,49.4z"/>
		<g>
			<path class="st0" d="M3.4,19l-0.1,0.4l0,0c0.2,0,0.3,0.2,0.3,0.3c0.1,0.2,0.1,0.4,0,0.5l0,0L4,20.3l0.2-0.6l2.1,0.6l0,0l0.1-0.5
				L3.4,19L3.4,19L3.4,19z"/>
			<path class="st0" d="M6.8,16.9c-0.3-0.3-1.1-0.6-1.6-0.6c-0.6,0-1,0.2-1.2,0.7c-0.2,0.6,0,1.1,0.6,1.4c0.6,0.2,1.2,0,1.4-0.5
				c0.1-0.2,0.1-0.5,0-0.8c0.1,0.1,0.3,0.1,0.5,0.3c0.2,0.2,0.3,0.4,0.2,0.7c-0.1,0.3-0.5,0.4-0.7,0.4l0,0l-0.2,0.4l0,0
				c0.1,0,0.2,0,0.3,0c0.4,0,0.8-0.2,1-0.6C7.3,17.7,7.2,17.2,6.8,16.9z M5.7,17.5c-0.1,0.1-0.2,0.2-0.3,0.3c-0.2,0-0.3,0-0.5,0
				c-0.3-0.1-0.5-0.5-0.4-0.8c0.1-0.2,0.2-0.3,0.3-0.3c0.1,0,0.1,0,0.2,0s0.2,0,0.3,0.1c0.2,0.1,0.3,0.2,0.4,0.3
				C5.7,17.2,5.7,17.4,5.7,17.5L5.7,17.5z"/>
			<path class="st0" d="M8.3,14.4l-0.4-0.2l-0.2,0.4l-1.9-1.1l0,0l-0.2,0.4l1.2,2.2l0,0l0.5,0.3L8,15.2l0.5,0.3L8.6,15l-0.5-0.3
				L8.3,14.4L8.3,14.4z M7.5,14.9l-0.4,0.8l-0.8-1.4C6.3,14.2,7.5,14.9,7.5,14.9z"/>
			<path class="st0" d="M7.1,11.7L7.1,11.7L6.8,12l0,0C7,12.1,7,12.3,7,12.4c0,0.2-0.1,0.4-0.2,0.5l0,0l0.3,0.2l0.4-0.5l1.8,1.3
				l0.3-0.4L7.1,11.7z"/>
		</g>
		<g>
			<path class="st0" d="M12.7,5.9L12.7,5.9L12.2,6l0,0c0.4,1.1,0.1,2.1,0.1,2.2l0,0l0.5,0.1l0,0c0-0.1,0.1-0.4,0.1-0.5L14,9.7
				l0.4-0.3L12.9,7C12.9,6.8,12.8,6.3,12.7,5.9L12.7,5.9z"/>
			<polygon class="st0" points="15.3,5.8 15.3,5.8 15,5.4 13.2,6.5 13.2,6.6 13.4,6.9 			"/>
			<polygon class="st0" points="16.4,7.2 14.2,8.5 14.2,8.5 14.5,8.9 16.6,7.6 16.6,7.6 			"/>
		</g>
		<g>
			<path class="st0" d="M23.6,5.5c0,0-0.1-0.2-0.2-0.3C23.2,5,23,4.8,23,4.8l0,0L22.7,5L23,5.4c0.1,0.1,0.2,0.3,0.2,0.3l0,0
				L23.6,5.5L23.6,5.5L23.6,5.5z"/>
			<path class="st0" d="M21.9,4.9L21.9,4.9l-0.3,0.2l0,0c0.3,0.3,0.3,0.5,0.3,0.5l0,0l0.4-0.2l0,0C22.3,5.3,22.1,5,21.9,4.9z"/>
			<path class="st0" d="M20.7,5.3c0,0,0,0.4-0.2,0.8l0,0l0.4,0.2l0,0C21,5.9,21,5.4,21,5.4l0,0L20.7,5.3L20.7,5.3L20.7,5.3z"/>
			<polygon class="st0" points="20.4,4.8 20.5,5.2 23.2,4.6 23.3,4.6 23.2,4.3 			"/>
			<path class="st0" d="M21.3,3.1v0.3l-1,0.2l0,0l0.2,1l0,0L23,4.1l0,0l-0.2-1l0,0l-1,0.2V3l1.1-0.2l0,0l-0.1-0.3l-1.1,0.2V2.3
				l-0.5,0.1l0.1,0.4L20.2,3l0,0l0.1,0.3L21.3,3.1L21.3,3.1z M22.2,3.6l0.3-0.1l0.1,0.3l-0.3,0.1L22.2,3.6z M21.1,3.8l0.1,0.3
				l-0.3,0.1l-0.1-0.3C20.8,3.8,21.1,3.8,21.1,3.8z M21.6,4.1l-0.1-0.3l0.3-0.1L21.9,4L21.6,4.1z"/>
			<path class="st0" d="M19.3,4c0.3-0.3,0.4-0.5,0.8-1.1l0,0l-0.4-0.2l0,0c-0.1,0.5-0.6,0.9-0.7,1l0,0L19.3,4L19.3,4L19.3,4z"/>
			<path class="st0" d="M20.3,3.7L20.3,3.7L20.3,3.7l-0.4-0.1l0,0c-0.1,0.6-0.6,1.2-0.8,1.4l0,0l0.3,0.3l0,0l0,0
				c0-0.1,0.2-0.2,0.3-0.4l0.4,1.8l0,0l0.4-0.1l-0.4-2.2C20.1,4.3,20.2,4.1,20.3,3.7L20.3,3.7z"/>
			<path class="st0" d="M23,5.5h-0.4l0,0c0,0.1,0,0.2,0,0.2c0,0.1-0.4,0.1-0.5,0.2c0,0,0,0-0.1,0s-0.2,0-0.3-0.1V5.6
				c0-0.1,0-0.2,0-0.2l0,0l0,0h-0.4l0.1,0.3l0,0c0,0.2,0.1,0.4,0.1,0.5s0.2,0.1,0.3,0.1c0.2,0,0.4-0.1,0.6-0.1h0.1
				c0.3-0.1,0.4-0.1,0.5-0.3C23,5.8,22.9,5.6,23,5.5L23,5.5L23,5.5z"/>
		</g>
		<g>
			<path class="st0" d="M28.1,3L28.1,3l0.2-0.3l0,0c-0.2-0.2-0.4-0.3-0.6-0.5l0,0l-0.2,0.3l0,0C27.8,2.7,27.9,2.8,28.1,3L28.1,3z"/>
			<path class="st0" d="M28,4.8l-0.3-0.2l0,0c-0.3,0.7-0.7,1-0.9,1.2l0,0l0.4,0.3l0,0C27.4,5.7,27.7,5.4,28,4.8L28,4.8L28,4.8z"/>
			<path class="st0" d="M27.8,4L27.8,4L28,3.7l0,0c-0.3-0.3-0.4-0.4-0.5-0.4l0,0l-0.2,0.3l0,0C27.3,3.6,27.6,3.8,27.8,4L27.8,4z"/>
			<path class="st0" d="M30.3,5.2l-1.5-0.3l0.1-0.2l-0.5-0.1l0,0c0,0,0,0.4-0.1,0.8S27.9,6,27.8,6l0,0L28,6.3l0,0
				c0.2-0.1,0.3-0.2,0.5-0.5l1.6,0.3L30,6.6l0.4,0.1l0.3-1.5c0-0.1,0-0.2,0.1-0.2l0,0l0,0l-0.4-0.1L30.3,5.2L30.3,5.2z M30.2,5.8
				l-1.5-0.3l0.1-0.3l1.5,0.3L30.2,5.8L30.2,5.8z"/>
			<path class="st0" d="M30.1,2.9V2.7l0.1-0.2l-0.4-0.1v0.2v0.2l-1.3-0.2L28.4,3l1.1,0.2l-0.3,0.1l0.1,0.2l-1-0.2v0.3h0.2
				C28.4,4,28,4.1,27.9,4.2l0,0l0.2,0.3l0,0c0.4-0.1,0.6-0.5,0.7-0.7h0.1c0,0.1-0.1,0.4-0.2,0.5c0,0-0.1,0-0.2,0l0,0v0.3l0,0
				c0.1,0,0.3,0.1,0.4,0s0.2-0.4,0.3-0.8l0.1,0.3l-0.1,0.7l0.4,0.1L29.9,4l0.6-0.5l-0.2-0.2l1,0.2l0.1-0.3L30.1,2.9L30.1,2.9z
				 M30.1,3.3l-0.3,0.4l-0.2-0.5L30.1,3.3L30.1,3.3z"/>
			<path class="st0" d="M31,4l0.2-0.1L31,3.6l0,0c0,0-0.2,0.1-0.3,0.1s-0.3,0-0.5,0l0,0v0.2l-0.1,0.4H30l0.1,0.4l0.7-0.1
				C30.9,4.9,31,5.1,31,5.1l0,0l0.3-0.2l0,0C31,4.5,31,4.1,31,4L31,4z M30.7,4.4h-0.2L30.6,4h0.1C30.7,4.2,30.7,4.4,30.7,4.4z"/>
		</g>
		<path class="st0" d="M37.3,7l0.4-0.7C37.9,6.1,38,6,38,6l-0.5-0.3c0,0-0.1,0.2-0.2,0.4l-0.4,0.7l-0.5-0.3l0.4-0.7
			C36.9,5.6,37,5.5,37,5.5l-0.4-0.3c0,0-0.1,0.2-0.2,0.4L36,6.3L35.5,6L36,5.3c0.1-0.2,0.2-0.2,0.2-0.2l-0.5-0.3l-0.1,0.3l-0.4,0.6
			l-0.5-0.3l-0.2,0.4L35,6.1l-1.1,1.8l2.6,1.6l0.2-0.4l-2.2-1.3l0.9-1.5l0.5,0.3l-0.7,1.1l1.3,0.8l0.7-1.1l0.7,0.4L38,7.4L37.3,7
			L37.3,7z M36.3,7.8l-0.5-0.3l0.4-0.7l0.5,0.3L36.3,7.8z"/>
		<g>
			<path class="st0" d="M43.6,12l-0.2-0.3l0,0c-0.1,0.1-0.3,0.1-0.4,0.1c-0.2-0.1-0.3-0.2-0.4-0.3l0,0l-0.3,0.2l0.4,0.5l-1.8,1.3
				l0.3,0.4L43.6,12L43.6,12L43.6,12z"/>
			<path class="st0" d="M43.2,16c0.5-0.1,1.2-0.5,1.5-0.8c0.4-0.4,0.4-0.9,0.2-1.3c-0.2-0.2-0.4-0.4-0.7-0.5s-0.6,0-0.8,0.1
				c-0.5,0.3-0.7,0.9-0.5,1.4c0.1,0.2,0.3,0.4,0.6,0.5c-0.1,0.1-0.3,0.1-0.5,0.2c-0.2,0-0.5,0-0.7-0.2c-0.2-0.3,0-0.6,0.1-0.7l0,0
				l-0.2-0.4l0,0c-0.4,0.3-0.6,0.9-0.3,1.4c0.2,0.4,0.5,0.5,1,0.5C43.1,16,43.2,16,43.2,16L43.2,16z M43.7,13.9
				c0.1-0.1,0.2-0.1,0.4-0.1h0.1c0.2,0,0.3,0.1,0.3,0.3c0.1,0.1,0.1,0.3,0,0.4s-0.2,0.3-0.3,0.4c-0.3,0.2-0.7,0.1-0.8-0.2
				C43.2,14.4,43.4,14.1,43.7,13.9L43.7,13.9z"/>
			<path class="st0" d="M44.8,17.3c0.6,0,1.1,0.1,1.3,0.2l0,0l0.4-0.2l-0.8-1.9l-0.4,0.2l0.6,1.4c-0.3-0.1-0.9-0.1-1.4-0.2
				c-0.6,0-1.2,0.1-1.5,0.2l0,0l0.2,0.5l0,0C43.4,17.4,44.1,17.3,44.8,17.3z"/>
			<path class="st0" d="M47,18.8c-0.2-0.6-0.7-0.9-1.3-0.7c-0.6,0.2-0.9,0.7-0.8,1.2c0.1,0.2,0.2,0.5,0.5,0.6
				c-0.2,0-0.3,0.1-0.5,0.1s-0.5-0.1-0.6-0.4s0.1-0.6,0.3-0.7l0,0l-0.1-0.5l0,0c-0.4,0.2-0.8,0.7-0.6,1.2c0.1,0.5,0.5,0.7,1.1,0.8
				h0.1c0.5,0,1.2-0.2,1.5-0.5C47,19.7,47.2,19.3,47,18.8L47,18.8z M46.6,19.4c-0.1,0.1-0.2,0.2-0.4,0.3c-0.4,0.1-0.7,0-0.8-0.4
				c0-0.1,0-0.3,0.1-0.4s0.2-0.2,0.4-0.3c0.1,0,0.2,0,0.2,0c0.1,0,0.2,0,0.3,0.1s0.2,0.2,0.3,0.3C46.7,19.1,46.6,19.3,46.6,19.4
				L46.6,19.4z"/>
		</g>
	</g>
	<g>
		<rect x="99.9" y="9.6" class="st0" width="3" height="21.8"/>
		<polygon class="st0" points="95.4,14.8 92.2,14.8 92.2,17.9 95.4,17.9 95.4,31.4 98.4,31.4 98.4,9.6 95.4,9.6 		"/>
		<polygon class="st0" points="148.5,9.6 145.1,9.6 145.1,21.7 148.5,21.7 148.5,17.3 151.4,17.3 151.4,14.3 148.5,14.3 		"/>
		<path class="st0" d="M140.1,20.1c1.1-1,1.7-2.3,1.7-3.8c0-1.2-0.4-2.3-1.2-3.3l-0.1-0.1h1.9v-2.7h-4.6V8.5h-3.5v1.7h-4.6v2.7h1.9
			l-0.1,0.1c-0.8,0.9-1.2,2-1.2,3.3c0,1.5,0.6,2.8,1.7,3.8s2.5,1.6,4,1.6S139,21.1,140.1,20.1L140.1,20.1z M133.3,16.3
			c0-0.8,0.3-1.4,0.8-2c0.5-0.5,1.2-0.8,1.9-0.8s1.4,0.3,1.9,0.8s0.8,1.2,0.8,2s-0.3,1.4-0.8,2c-0.5,0.5-1.2,0.8-1.9,0.8
			s-1.4-0.3-1.9-0.8C133.6,17.7,133.3,17.1,133.3,16.3z"/>
		<rect x="75.3" y="9.6" class="st0" width="3.1" height="15.1"/>
		<path class="st0" d="M70.8,20c1.2-1.2,1.9-2.6,1.9-4.3s-0.6-3.2-1.9-4.4S68,9.5,66.2,9.5s-3.3,0.6-4.6,1.8s-1.9,2.6-1.9,4.4
			s0.6,3.2,1.9,4.3s2.8,1.8,4.6,1.8S69.6,21.2,70.8,20z M63.1,15.6c0-0.9,0.3-1.7,0.9-2.3c0.6-0.6,1.4-0.9,2.2-0.9s1.6,0.3,2.2,0.9
			c0.6,0.6,0.9,1.4,0.9,2.3c0,0.9-0.3,1.7-0.9,2.3c-0.6,0.6-1.4,0.9-2.2,0.9s-1.6-0.3-2.2-0.9C63.4,17.3,63.1,16.5,63.1,15.6z"/>
		<polygon class="st0" points="165.4,27.3 165.4,21.7 162.1,21.7 162.1,27.3 159.8,27.3 159.8,21.7 156.5,21.7 156.5,27.3 
			152.4,27.3 152.4,30.5 173.4,30.5 173.4,27.3 		"/>
		<path class="st0" d="M65.6,27.7v-3.2H62V29c0,1,0.8,1.8,1.8,1.8h14.6v-3C78.4,27.7,65.6,27.7,65.6,27.7z"/>
		<path class="st0" d="M116.7,13v-3h-9.8v13.3c0,0.9,0.8,1.7,1.7,1.7h9.6v6.5h3.1V17.9h1.4v13.5h3V9.6h-3v5.2h-1.4V9.6h-3.1v12.3
			h-7.9V13H116.7z"/>
		<path class="st0" d="M146.9,23.1h-14.6v3h12.5v5.5h3.6v-7C148.4,23.8,147.8,23.1,146.9,23.1z"/>
		<path class="st0" d="M169.9,9.9h-15.2V13h13.2v11.7h3.6V11.4C171.4,10.6,170.7,9.9,169.9,9.9L169.9,9.9z"/>
		<g>
			<path class="st0" d="M60.4,34.4h2.1v9.5h-2.1V34.4z"/>
			<path class="st0" d="M64.3,34.4h2.1l4,6.4l0,0v-6.4h1.9v9.5h-2.1l-3.9-6.3l0,0v6.3h-1.9L64.3,34.4L64.3,34.4z"/>
			<path class="st0" d="M79.7,40.9c0,0.4,0,0.7-0.1,1.1c-0.1,0.3-0.2,0.7-0.4,1c-0.2,0.3-0.5,0.6-1,0.8s-1,0.3-1.6,0.3
				c-0.4,0-0.8-0.1-1.2-0.2c-0.4-0.1-0.7-0.3-1-0.5s-0.5-0.5-0.7-0.9s-0.2-0.8-0.2-1.3v-0.8h1.9v0.4c0,0.5,0.1,0.9,0.3,1.2
				c0.2,0.3,0.5,0.4,0.9,0.4c0.3,0,0.5,0,0.6-0.1c0.2-0.1,0.3-0.2,0.3-0.4s0.1-0.3,0.1-0.5s0-0.3,0-0.6v-6.4h2.1L79.7,40.9
				L79.7,40.9z"/>
			<path class="st0" d="M81.6,34.4h7.1v1.8h-5v2h4.6v1.6h-4.6v2.3h5.1v1.8h-7.2V34.4L81.6,34.4z"/>
			<path class="st0" d="M101.9,40.4c0,1.3-0.3,2.2-1.1,2.8c-0.7,0.6-1.7,1-3,1s-2.3-0.3-3-1c-0.7-0.6-1.1-1.6-1.1-2.9v-5.9h2.1v5.9
				c0,0.3,0,0.6,0.1,0.8s0.1,0.5,0.3,0.6c0.1,0.2,0.3,0.3,0.6,0.5s0.6,0.2,1,0.2c0.7,0,1.2-0.2,1.5-0.5s0.4-0.8,0.4-1.6v-5.9h2.1
				L101.9,40.4L101.9,40.4z"/>
			<path class="st0" d="M103.7,34.4h2.1l4,6.4l0,0v-6.4h2v9.5h-2.1l-3.9-6.3l0,0v6.3h-1.9C103.7,43.9,103.7,34.4,103.7,34.4z"/>
			<path class="st0" d="M113.6,34.4h2.1v9.5h-2.1V34.4z"/>
			<path class="st0" d="M121.9,43.9h-2.3l-3.1-9.5h2.2l2.1,6.7l0,0l2.1-6.7h2.2C125.1,34.4,121.9,43.9,121.9,43.9z"/>
			<path class="st0" d="M125.9,34.4h7.1v1.8h-5v2h4.6v1.6H128v2.3h5.1v1.8h-7.2L125.9,34.4L125.9,34.4z"/>
			<path class="st0" d="M140.4,43.9c0-1,0-1.5-0.1-2.3c-0.1-0.5-0.2-0.9-0.5-1.1c-0.2-0.2-0.6-0.3-1.1-0.3h-2.1v3.7h-2.1v-9.5h5.1
				c0.4,0,0.8,0.1,1.1,0.2c0.4,0.1,0.6,0.3,0.9,0.6c0.2,0.2,0.4,0.5,0.6,0.8c0.1,0.3,0.2,0.7,0.2,1c0,0.6-0.1,1.1-0.4,1.5
				c-0.2,0.4-0.6,0.7-1.1,0.9l0,0c0.5,0.1,0.8,0.4,1,0.8s0.6,1,0.6,3.7L140.4,43.9L140.4,43.9z M136.6,38.7h2.3
				c0.5,0,0.8-0.1,1.1-0.3c0.2-0.2,0.4-0.6,0.4-1s-0.1-0.8-0.4-1c-0.2-0.2-0.6-0.3-1.1-0.3h-2.3V38.7z"/>
			<path class="st0" d="M145.5,40.8c0,0.6,0.2,1,0.6,1.3c0.4,0.3,0.9,0.4,1.5,0.4c0.2,0,0.4,0,0.6,0c0.2,0,0.4-0.1,0.6-0.2
				s0.3-0.2,0.5-0.4c0.1-0.2,0.2-0.3,0.2-0.6c0-0.2-0.1-0.4-0.2-0.5c-0.1-0.2-0.3-0.3-0.5-0.4c-0.2-0.1-0.4-0.2-0.6-0.3
				s-0.5-0.2-0.9-0.2c-0.3-0.1-0.5-0.1-0.6-0.2c-0.4-0.1-0.8-0.2-1.1-0.4c-0.3-0.1-0.6-0.3-0.9-0.5c-0.3-0.2-0.5-0.5-0.6-0.8
				c-0.2-0.3-0.2-0.7-0.2-1.1c0-0.5,0.1-0.9,0.3-1.2s0.5-0.7,0.8-0.9s0.7-0.4,1.1-0.5c0.4-0.1,0.9-0.2,1.3-0.2c0.5,0,1,0.1,1.5,0.2
				c0.5,0.1,0.9,0.3,1.2,0.5c0.4,0.2,0.6,0.6,0.8,1s0.3,0.8,0.3,1.4h-2c0-0.5-0.2-0.9-0.5-1.1c-0.3-0.2-0.8-0.3-1.3-0.3
				c-0.4,0-0.7,0.1-1,0.3s-0.4,0.5-0.4,0.8c0,0.2,0,0.3,0.1,0.5s0.2,0.2,0.4,0.3s0.4,0.2,0.7,0.3s0.8,0.2,1.4,0.4c0,0,0.1,0,0.2,0.1
				h0.1c0.3,0.1,0.6,0.2,0.9,0.3c0.3,0.1,0.5,0.2,0.8,0.5c0.3,0.2,0.5,0.5,0.7,0.8s0.3,0.8,0.3,1.2c0,0.9-0.4,1.6-1,2.2
				c-0.7,0.6-1.7,0.8-2.9,0.8c-0.5,0-1.1-0.1-1.5-0.2s-0.9-0.3-1.3-0.6c-0.4-0.3-0.7-0.6-0.9-1.1s-0.3-0.9-0.3-1.5L145.5,40.8
				L145.5,40.8z"/>
			<path class="st0" d="M152.7,34.4h2.1v9.5h-2.1V34.4z"/>
			<path class="st0" d="M158.8,36.2H156v-1.8h7.8v1.8h-2.9v7.7h-2.1V36.2L158.8,36.2z"/>
			<path class="st0" d="M167.6,40.2l-3.5-5.8h2.4l2.2,3.8l2.2-3.8h2.3l-3.5,5.8v3.6h-2.1L167.6,40.2L167.6,40.2z"/>
		</g>
		<path class="st0" d="M90.2,13L90.2,13H94v-3H83.5v3h3.2l0,0c0.1,1.2,0.2,8-4.4,8.7v3h0.1c0.6,0,3.9-0.2,6-3.2l0,0l0,0
			c2.1,3.1,5.4,3.2,6,3.2h0.1v-3C90,21,90.1,14.2,90.2,13L90.2,13z"/>
	</g>
</g>
<rect x="182.2" y="9.9" class="st0" width="0.9" height="34.1"/>
<g class="st1">
	<path class="st0" d="M216,21.6h-8.8v3.6h12.1v2.5H192v-2.5h12v-3.6h-8.8V11.4h20.4v2.5h-17.4v5.2H216V21.6z M213.3,31.1
		c1.8,0.9,2.7,2.2,2.7,4s-0.9,3-2.7,4c-1.8,0.9-4.4,1.4-7.7,1.4s-5.8-0.5-7.7-1.4c-1.8-0.9-2.7-2.3-2.7-4s0.9-3,2.7-3.9
		c1.8-1,4.4-1.4,7.6-1.4C208.9,29.7,211.5,30.1,213.3,31.1z M205.6,32.1c-2.2,0-4,0.3-5.3,0.8s-2,1.2-2,2.1c0,0.9,0.6,1.6,1.9,2.1
		c1.3,0.5,3.1,0.8,5.3,0.8c2.3,0,4.1-0.3,5.4-0.8c1.3-0.5,2-1.2,2-2.1c0-0.9-0.7-1.6-2-2.1C209.7,32.4,207.9,32.1,205.6,32.1z"/>
	<path class="st0" d="M221.9,30.7c-1.3-2-1.9-4.5-1.9-7.7s0.6-5.7,1.9-7.7s3.2-3,5.7-3s4.4,1,5.7,3s1.9,4.6,1.9,7.7
		c0,3.2-0.6,5.7-1.9,7.7c-1.3,2-3.2,3-5.7,3C225.1,33.7,223.1,32.7,221.9,30.7z M232.2,23.1c0-2.4-0.4-4.4-1.2-5.9s-1.9-2.2-3.4-2.2
		s-2.6,0.7-3.4,2.2c-0.8,1.5-1.2,3.4-1.2,5.9c0,2.4,0.4,4.3,1.2,5.8s1.9,2.2,3.4,2.2s2.6-0.7,3.4-2.2S232.2,25.5,232.2,23.1z
		 M247.6,24.7h-4.8v15.7h-3.1V10.2h3.1v12h4.8V24.7z"/>
	<path class="st0" d="M266.1,29.8l0.3,2.5c-3.7,0.6-8.4,0.9-14.2,1h-3.8V21.4h11.3v-6h-11.4V13h14.5v10.9h-11.3v6.8h0.9
		C258.3,30.7,262.8,30.4,266.1,29.8z M268.7,10.2h3.1v30.2h-3.1V10.2z"/>
	<path class="st0" d="M276.8,14.3c1.5-1.5,3.4-2.2,5.6-2.2c2.3,0,4.1,0.7,5.6,2.2s2.2,3.3,2.2,5.5s-0.7,4-2.2,5.4s-3.3,2.1-5.6,2.1
		s-4.2-0.7-5.6-2.1c-1.5-1.4-2.2-3.2-2.2-5.4C274.5,17.6,275.3,15.8,276.8,14.3z M282.4,14.8c-1.4,0-2.5,0.5-3.4,1.4
		c-0.9,1-1.3,2.2-1.3,3.6s0.4,2.6,1.3,3.5s2,1.4,3.4,1.4s2.6-0.5,3.4-1.4c0.9-0.9,1.3-2.1,1.3-3.5c0-1.5-0.4-2.7-1.3-3.6
		S283.8,14.8,282.4,14.8z M299.7,39.5h-20.2v-9.3h3V37h17.2V39.5z M296,16.9h-5l-0.1-2.6h5.1v-4.1h3.1v21.9H296v-7.7h-5.1l0.1-2.5h5
		V16.9z"/>
	<path class="st0" d="M319.2,17.2h-17.5v-2.4h17.5V17.2z M317.5,23.3c0,1.4-0.6,2.6-1.9,3.5s-3,1.3-5.1,1.3s-3.8-0.4-5.1-1.3
		c-1.3-0.9-1.9-2.1-1.9-3.5c0-1.5,0.6-2.7,1.9-3.5c1.3-0.9,3-1.3,5.1-1.3s3.8,0.4,5.1,1.3C316.9,20.6,317.5,21.8,317.5,23.3z
		 M325.1,40.1h-19.2V29.2h3v3H322v-3h3v10.9H325.1z M314.7,12.9h-8.6v-2.4h8.6V12.9z M314.5,23.3c0-0.8-0.4-1.4-1.2-1.8
		c-0.8-0.5-1.7-0.7-2.8-0.7c-1.1,0-2,0.2-2.8,0.7s-1.2,1.1-1.2,1.8c0,0.7,0.4,1.3,1.2,1.8c0.8,0.5,1.7,0.7,2.8,0.7
		c1.1,0,2-0.2,2.8-0.7C314.1,24.6,314.5,24,314.5,23.3z M322.1,37.6v-3.1H309v3.1H322.1z M329.6,21.3h-4.5v6.4h-3V10.2h3v8.5h4.5
		V21.3z"/>
	<path class="st0" d="M349.6,34.6c-2.9,0.3-6.3,0.6-10.3,0.9c-5,0.2-8.1,0.3-9.5,0.3l-0.5-2.6c2.6,0,5.4-0.1,8.4-0.2v-2.8
		c-1.7-0.2-3.1-0.8-4.1-1.7c-1-0.9-1.6-2-1.6-3.3c0-1.5,0.7-2.7,2-3.7c1.4-0.9,3.1-1.4,5.2-1.4c2.2,0,4,0.5,5.3,1.4s2,2.2,2,3.7
		c0,1.3-0.5,2.5-1.6,3.4s-2.5,1.5-4.3,1.7v2.6c3.6-0.2,6.5-0.4,8.6-0.7L349.6,34.6z M348.3,18.6h-18v-2.5h18V18.6z M343.5,14.1h-8.7
		v-2.5h8.7V14.1z M342.2,27.2c0.8-0.5,1.2-1.1,1.2-1.9s-0.4-1.4-1.2-1.9s-1.8-0.8-3-0.8s-2.1,0.3-2.9,0.8s-1.2,1.1-1.2,1.9
		s0.4,1.4,1.2,1.9c0.8,0.5,1.7,0.8,2.9,0.8C340.5,27.9,341.4,27.7,342.2,27.2z M354.2,40.4h-3V10.2h3V40.4z"/>
</g>
</svg>
