<?xml version="1.0" encoding="UTF-8"?><svg id="_이어_1" xmlns="http://www.w3.org/2000/svg" viewBox="0 0 510.65 50.4"><defs><style>.cls-1{fill:#7e7e7f;}.cls-2{isolation:isolate;}</style></defs><g><g><path d="M25.2,11c1.7,1.3,4,2.4,6.7,3.1,1.2,.3,2.4,.5,3.5,.6v17.7c0,3.3-1.6,4-1.6,4l-8.6,4.2-8.6-4.2s-1.6-.7-1.6-4V14.6c1.1-.1,2.3-.3,3.5-.6,2.7-.6,5-1.7,6.7-3m0-1l-.5,.4c-1.7,1.3-4,2.3-6.4,2.9-1.1,.3-2.3,.5-3.4,.5l-.7,.1v18.5c0,1.5,.3,2.8,1,3.7,.5,.7,1,1,1.1,1l8.6,4.2,.3,.2,.3-.2,8.6-4.2c.1-.1,.6-.3,1.1-1,.6-.9,1-2.2,1-3.7V13.9l-.7-.1c-1.1-.1-2.2-.3-3.4-.5-2.5-.6-4.7-1.6-6.4-2.9l-.5-.4h0Z"/><g><path d="M21.5,17.5c-.1-.2-.1-.5-.1-.7v-.2h.5v-.4h-1.4v.4h.5v.2c0,.3,0,.5-.1,.8s-.3,.5-.5,.6h0l.3,.2h0c.1-.1,.3-.2,.4-.4,.1-.1,.2-.3,.2-.4,0,.1,.1,.2,.2,.4,.1,.1,.2,.3,.3,.4h0l.3-.2h0c-.4-.2-.5-.4-.6-.7h0Z"/><rect x="22.7" y="16" width=".4" height="3.1"/><polygon points="22.1 16.9 21.6 16.9 21.6 17.3 22.1 17.3 22.1 19.1 22.5 19.1 22.5 16 22.1 16 22.1 16.9"/><path d="M24.9,18h-.6v-1.5h.7v-.4h-1.2v2.2h1c.1,0,.3,0,.4-.1h0v-.4h0c-.1,.2-.2,.2-.3,.2h0Z"/><polygon points="26 17.1 25.8 17.1 25.8 16 25.4 16 25.4 19.1 25.8 19.1 25.8 17.5 26 17.5 26 19.1 26.4 19.1 26.4 16 26 16 26 17.1"/><path d="M32.5,17.2v.1c0,.2,0,.5-.1,.6h.4c0-.2,0-.5,.1-.8v-1h-2.3v.4h1.9c.1,.3,.1,.5,0,.7h0Z"/><polygon points="32.3 18.5 32.3 17.4 31.9 17.4 31.9 18.5 31.5 18.5 31.5 17.4 31.1 17.4 31.1 18.5 30.4 18.5 30.4 18.9 33.4 18.9 33.4 18.5 32.3 18.5"/><polygon points="29.6 16 29.2 16 29.2 17.9 29.6 17.9 29.6 17.2 30 17.2 30 16.8 29.6 16.8 29.6 16"/><polygon points="28.9 16.3 28.2 16.3 28.2 15.9 27.8 15.9 27.8 16.3 27.1 16.3 27.1 16.6 28.9 16.6 28.9 16.3"/><path d="M28.6,17.7c.2-.1,.2-.3,.2-.5s-.1-.3-.2-.5c-.2-.1-.4-.2-.6-.2s-.4,.1-.6,.2-.2,.3-.2,.5,.1,.3,.2,.5c.2,.1,.4,.2,.6,.2s.4,0,.6-.2Zm-.3-.2c-.1,.1-.2,.1-.3,.1s-.2,0-.3-.1q-.1-.1-.1-.2t.1-.2c.1-.1,.2-.1,.3-.1s.2,0,.3,.1q.1,.1,.1,.2,0,.1-.1,.2Z"/><rect x="19.2" y="16" width=".4" height="2.2"/><path d="M18.5,17.5c.2-.2,.2-.4,.2-.6s-.1-.4-.2-.6-.4-.2-.6-.2-.4,.1-.6,.2-.3,.4-.3,.6,.1,.4,.2,.6,.4,.2,.6,.2,.6-.1,.7-.2Zm-1-.6c0-.1,0-.2,.1-.3,.1-.1,.2-.1,.3-.1s.2,0,.3,.1c.1,.1,.1,.2,.1,.3s0,.2-.1,.3c-.1,.1-.2,.1-.3,.1s-.2,0-.3-.1c-.1-.1-.1-.2-.1-.3Z"/><polygon points="18 18 17.6 18 17.6 19.1 19.7 19.1 19.7 18.8 18 18.8 18 18"/><polygon points="27.5 18.5 29.2 18.5 29.2 19.1 29.6 19.1 29.6 18.1 27.5 18.1 27.5 18.5"/></g><g><path d="M22.5,20.6v5.3h1.8v-3.6h1c1,0,.9,.9,.9,.9v.4h1.7v-1.2s-.1-1.8-1.9-1.8h-3.5Z"/><path d="M26.1,26h3.6v1c0,1-.9,.9-.9,.9h-.4v1.7h1.2s1.8-.1,1.8-1.9v-3.4h-5.3v1.7h0Z"/><path d="M27.9,27.8h-1.8v3.6h-1c-1,0-.9-.9-.9-.9v-.4h-1.7v1.2s.1,1.8,1.9,1.8h3.4c.1,0,.1-5.3,.1-5.3Z"/><path d="M18.9,29.5h5.3v-1.8h-3.6v-1c0-1,.9-.9,.9-.9h.4v-1.7h-1.2s-1.8,.1-1.8,1.9v3.5Z"/></g><g><polygon points="19.3 33.8 18.9 33.6 17.9 35.8 17.8 35.9 18.3 36.1 19.3 33.9 19.3 33.8"/><polygon points="21.5 34.8 21 34.6 20.3 36.1 20.4 34.4 20.4 34.3 19.9 34.1 18.8 36.3 18.8 36.3 19.2 36.5 19.9 35 19.9 36.8 19.9 36.8 20.4 37.1 21.4 34.9 21.5 34.8"/><path d="M22.9,35.6l-.4-.2-.7,1.5c-.1,.3-.2,.4-.4,.3-.1-.1-.1-.2,0-.4v-.2l-.4-.2v.1c-.1,.2-.2,.4-.1,.6,0,.2,.2,.4,.4,.5,.1,.1,.3,.1,.4,.1h.2c.2-.1,.3-.2,.4-.4l.6-1.7h0Z"/><polygon points="22.4 38 22.3 38.1 23.6 38.7 23.8 38.3 23 37.9 23.2 37.3 24 37.7 24.2 37.3 23.4 36.9 23.6 36.4 24.5 36.8 24.6 36.4 23.4 35.8 22.4 38"/><path d="M27.2,35.7l-.4,.2,.7,1.4c.1,.2,.1,.3,.1,.5,0,.1-.1,.1-.2,.2s-.2,.1-.3,0c-.1,0-.2-.2-.3-.4l-.7-1.4-.4,.2,.7,1.4c.1,.3,.3,.5,.5,.6,.1,0,.2,.1,.3,.1s.3,0,.4-.1c.3-.1,.4-.3,.5-.5,0-.2,0-.5-.1-.8l-.8-1.4h0Z"/><polygon points="28.9 34.9 29.6 36.4 28.2 35.2 27.7 35.5 28.8 37.7 29.2 37.5 28.4 36 29.8 37.2 29.9 37.2 30.4 37 29.3 34.7 28.9 34.9"/><rect x="30.19" y="34.2" width=".5" height="2.5" transform="translate(-12.33 16.64) rotate(-25.61)"/><polygon points="32.1 33.4 32.1 33.3 31.7 33.5 32 35.3 30.8 33.9 30.4 34.2 32 36 32.1 36.1 32.5 35.9 32.1 33.4"/></g><path d="M25.2,8c2.3,0,4.6,.5,6.7,1.4,1,.4,2,1,2.9,1.6s1.8,1.3,2.5,2.1,1.5,1.6,2.1,2.6c.6,.9,1.2,1.9,1.6,2.9,.9,2.1,1.4,4.4,1.4,6.7s-.5,4.6-1.4,6.7c-.4,1-1,2-1.6,2.9s-1.3,1.8-2.1,2.5-1.6,1.5-2.5,2.1-1.9,1.2-2.9,1.6c-2.1,.9-4.4,1.4-6.7,1.4s-4.6-.5-6.7-1.4c-1-.4-2-1-2.9-1.6s-1.8-1.3-2.6-2.1-1.5-1.6-2.1-2.5-1.1-1.9-1.6-3c-.9-2.1-1.3-4.3-1.3-6.7s.5-4.6,1.4-6.7c.4-1,1-2,1.6-2.9s1.3-1.8,2.1-2.6,1.6-1.5,2.6-2.1c.9-.6,1.9-1.2,2.9-1.6,2-.9,4.3-1.3,6.6-1.3m0-.8c-2.4,0-4.8,.5-7,1.4-1.1,.4-2.1,1-3.1,1.7-1,.6-1.9,1.4-2.7,2.2s-1.6,1.7-2.2,2.7c-.6,1-1.2,2-1.7,3.1-.9,2.2-1.4,4.6-1.4,7s.5,4.8,1.4,7c.4,1.1,1,2.1,1.7,3.1,.6,1,1.4,1.8,2.2,2.7,.8,.8,1.7,1.6,2.7,2.2,1,.7,2,1.2,3.1,1.7,2.2,.9,4.6,1.4,7,1.4s4.8-.5,7-1.4c1.1-.5,2.1-1,3.1-1.7s1.8-1.4,2.7-2.2c.8-.8,1.6-1.7,2.2-2.7,.7-1,1.2-2,1.7-3.1,.9-2.2,1.4-4.6,1.4-7s-.5-4.8-1.4-7c-.5-1.1-1-2.1-1.7-3.1s-1.4-1.9-2.2-2.7-1.7-1.6-2.7-2.2c-1-.6-2-1.2-3.1-1.7-2.2-.9-4.5-1.4-7-1.4h0Z"/><g><polygon points="14.9 41.8 14.6 41.5 14.1 42.1 13.6 41.7 13.3 42 13.9 42.4 13.4 43.1 13.3 43.1 13.7 43.4 14.9 41.8"/><path d="M11.5,41.6c.1,0,.4,.1,.6,.1s.4,0,.4-.1c0,.1,0,.3,.1,.4,.1,.2,.1,.4,.2,.5h0l.4-.1h0l-.3-.6c0-.2,0-.4,.1-.5h0l.5,.4,.2-.3-1.4-1.1h0l-.2,.3,.5,.4h0c-.1,.1-.2,.2-.5,.3-.2,0-.6,0-.8-.1h0l.2,.4h0Z"/><path d="M13.4,43.4c-.1-.2-.3-.5-.7-.7s-.6-.4-.9-.4c-.2,0-.4,0-.6,.2-.1,.2-.1,.4,0,.6,.1,.2,.3,.5,.7,.7,.3,.2,.6,.4,.9,.4h.1c.2,0,.3-.1,.4-.2h0c.1-.2,.1-.4,.1-.6h0Zm-.9-.4c.4,.3,.6,.6,.4,.7-.1,.1-.2,.1-.3,0-.1,0-.3-.1-.5-.3-.2-.1-.3-.3-.4-.4-.1-.1-.1-.2,0-.3s.4,0,.8,.3Z"/><polygon points="17 45.1 17 45.1 17.4 45.3 18.3 43.5 18.3 43.5 17.9 43.3 17 45.1"/><path d="M14.9,44.1h.5c.2,0,.3-.1,.5-.2,.1,.2,.1,.3,.2,.4,.1,.2,.2,.3,.3,.4h0l.4-.2h0c-.1-.1-.2-.2-.3-.5-.1-.2-.1-.5,0-.7h0l.6,.3,.2-.4-1.6-.8h0l-.2,.4,.6,.3h0c-.1,.2-.3,.4-.6,.5-.2,.1-.5,.1-.7,.1h0l.1,.4h0Z"/><polygon points="15.1 44.3 14.9 44.7 16.8 45.6 16.4 46.3 16.4 46.3 16.8 46.5 17.4 45.4 17.4 45.4 15.1 44.3"/><path d="M22.6,45.7c.1,.2,.2,.3,.3,.4,.2,.2,.4,.3,.5,.4h0l.3-.3h0c-.2-.1-.4-.3-.6-.5s-.2-.5-.2-.7v-.2h-.5v.2c0,.3-.1,.5-.4,.7-.2,.2-.4,.3-.7,.4h0l.3,.4h0c.2-.1,.3-.2,.5-.3l.5-.5h0Z"/><path d="M23.2,46.6c-.4,0-.7,0-1,.1-.2,.1-.4,.3-.4,.5s.1,.4,.3,.5c.2,.2,.5,.2,1,.3h.3c.6,0,1-.2,1-.6,.1-.4-.4-.7-1.2-.8h0Zm-.6,.4h.5c.2,0,.4,.1,.6,.2,.1,0,.2,.1,.2,.2s-.1,.2-.2,.2h-.6c-.2,0-.4-.1-.6-.2-.1,0-.2-.1-.2-.2s.2-.1,.3-.2Z"/><polygon points="24.1 45.3 23.5 45.2 23.4 45.7 24.1 45.7 24 46.7 24 46.7 24.5 46.7 24.7 44.8 24.7 44.7 24.2 44.7 24.1 45.3"/><rect x="28" y="44.5" width=".5" height="1.8" transform="translate(-3.89 2.67) rotate(-5.06)"/><polygon points="26.7 47.6 26.7 47.4 28.6 47.3 28.6 47.3 28.6 46.4 26.1 46.6 26.1 46.6 26.2 47 28.1 46.8 28.1 47 26.2 47.1 26.2 47.1 26.2 48 28.8 47.8 28.8 47.8 28.7 47.4 26.7 47.6"/><path d="M26.6,45.8c.1,.1,.2,.2,.4,.3,.2,.1,.3,.2,.5,.2h0l.2-.4h0c-.2,0-.4-.1-.6-.3s-.3-.4-.4-.6v-.3h-.5v.3c0,.2-.1,.5-.2,.7-.2,.2-.3,.3-.6,.5h0l.4,.3h0c.2-.1,.3-.2,.5-.3,.1-.2,.2-.3,.3-.4h0Z"/><polygon points="33.7 45.9 33.4 45.3 33.4 45.3 33 45.5 33.4 46.5 33.5 46.5 35.8 45.4 35.8 45.4 35.7 45 33.7 45.9"/><path d="M35.5,44l-.2-.4-.5,.2h0c0-.1-.1-.3-.1-.6,0-.2-.2-.7-.2-.8h0l-2.4,1.1h0l.2,.4,1.9-.9c.1,.3,.2,.7,.3,.9l-2.1,1h0l.2,.4,2.9-1.3h0Z"/><polygon points="39.3 42.6 37.6 43.8 37.2 43.2 36.8 43.5 37.5 44.4 39.6 42.9 39.3 42.6"/><path d="M37.5,42.2l.6-.4,.5,.7,.4-.3-1.4-2h0l-.4,.3,.3,.4-.6,.4-.2-.2-1.4,1,1,1.4h0l1.4-1-.2-.3h0Zm-.4-.5l.6-.4,.2,.2-.6,.4-.2-.2Zm-.5,0l.5,.7-.6,.4-.5-.6,.6-.5Z"/></g><g><path d="M4.7,30.4s2.1-1.5,1.2-4.8c0,0-1.4,.8-1.5,2.8-.7-1.9-2.3-2.2-2.3-2.2,.1,3.4,2.6,4.2,2.6,4.2h0Z"/><path d="M6.5,29.8s-1.2,1.1-.8,3.1c-1.1-1.8-2.7-1.8-2.7-1.8,.8,3.3,3.4,3.6,3.4,3.6,0,0,1.7-2,.1-4.9Z"/><path d="M7.8,36.9c-1.4-1.5-2.9-1.2-2.9-1.2,1.4,3.1,4,2.9,4,2.9,0,0,1.3-2.2-.8-4.9,0,.1-1,1.4-.3,3.2Z"/></g><g><path d="M45.8,30.4s-2.1-1.5-1.2-4.8c0,0,1.4,.8,1.5,2.8,.7-1.9,2.3-2.2,2.3-2.2-.2,3.4-2.6,4.2-2.6,4.2h0Z"/><path d="M44,29.8s1.2,1.1,.8,3.1c1.1-1.7,2.7-1.7,2.7-1.7-.8,3.3-3.4,3.6-3.4,3.6,0,0-1.8-2.1-.1-5Z"/><path d="M42.7,36.9c1.4-1.5,3-1.2,3-1.2-1.4,3.1-4,2.9-4,2.9,0,0-1.3-2.2,.8-4.9-.1,.1,.9,1.4,.2,3.2Z"/></g><g><path d="M20.3,45.7c0,.3-.2,.5-.5,.5s-.5-.2-.5-.5,.2-.5,.5-.5,.5,.2,.5,.5Z"/><path d="M31.1,45.7c0,.3-.2,.5-.5,.5s-.5-.2-.5-.5,.2-.5,.5-.5,.5,.2,.5,.5Z"/></g><path d="M25.2,0C11.3,0,0,11.3,0,25.2s11.3,25.2,25.2,25.2,25.2-11.3,25.2-25.2S39.2,0,25.2,0Zm0,49.4C11.9,49.4,1,38.6,1,25.2S11.9,1,25.2,1s24.2,10.8,24.2,24.2-10.8,24.2-24.2,24.2Z"/><g><path d="M3.4,19l-.1,.4h0c.2,0,.3,.2,.3,.3,.1,.2,.1,.4,0,.5h0l.4,.1,.2-.6,2.1,.6h0l.1-.5-3-.8h0Z"/><path d="M6.8,16.9c-.3-.3-1.1-.6-1.6-.6-.6,0-1,.2-1.2,.7-.2,.6,0,1.1,.6,1.4,.6,.2,1.2,0,1.4-.5,.1-.2,.1-.5,0-.8,.1,.1,.3,.1,.5,.3,.2,.2,.3,.4,.2,.7-.1,.3-.5,.4-.7,.4h0l-.2,.4h.3c.4,0,.8-.2,1-.6,.2-.6,.1-1.1-.3-1.4Zm-1.1,.6l-.3,.3h-.5c-.3-.1-.5-.5-.4-.8,.1-.2,.2-.3,.3-.3h.2c.1,0,.2,0,.3,.1,.2,.1,.3,.2,.4,.3v.4h0Z"/><path d="M8.3,14.4l-.4-.2-.2,.4-1.9-1.1h0l-.2,.4,1.2,2.2h0l.5,.3,.7-1.2,.5,.3,.1-.5-.5-.3,.2-.3h0Zm-.8,.5l-.4,.8-.8-1.4c0-.1,1.2,.6,1.2,.6Z"/><path d="M7.1,11.7h0l-.3,.3h0c.2,.1,.2,.3,.2,.4,0,.2-.1,.4-.2,.5h0l.3,.2,.4-.5,1.8,1.3,.3-.4-2.5-1.8Z"/></g><g><path d="M12.7,5.9h0l-.5,.1h0c.4,1.1,.1,2.1,.1,2.2h0l.5,.1h0c0-.1,.1-.4,.1-.5l1.1,1.9,.4-.3-1.5-2.4c0-.2-.1-.7-.2-1.1h0Z"/><polygon points="15.3 5.8 15.3 5.8 15 5.4 13.2 6.5 13.2 6.6 13.4 6.9 15.3 5.8"/><polygon points="16.4 7.2 14.2 8.5 14.2 8.5 14.5 8.9 16.6 7.6 16.6 7.6 16.4 7.2"/></g><g><path d="M23.6,5.5s-.1-.2-.2-.3l-.4-.4h0l-.3,.2,.3,.4c.1,.1,.2,.3,.2,.3h0l.4-.2h0Z"/><path d="M21.9,4.9h0l-.3,.2h0c.3,.3,.3,.5,.3,.5h0l.4-.2h0c0-.1-.2-.4-.4-.5Z"/><path d="M20.7,5.3s0,.4-.2,.8h0l.4,.2h0c.1-.4,.1-.9,.1-.9h0l-.3-.1h0Z"/><polygon points="20.4 4.8 20.5 5.2 23.2 4.6 23.3 4.6 23.2 4.3 20.4 4.8"/><path d="M21.3,3.1v.3l-1,.2h0l.2,1h0l2.5-.5h0l-.2-1h0l-1,.2v-.3l1.1-.2h0l-.1-.3-1.1,.2v-.4l-.5,.1,.1,.4-1.1,.2h0l.1,.3,1-.2h0Zm.9,.5l.3-.1,.1,.3-.3,.1-.1-.3Zm-1.1,.2l.1,.3-.3,.1-.1-.3c0-.1,.3-.1,.3-.1Zm.5,.3l-.1-.3,.3-.1,.1,.3-.3,.1Z"/><path d="M19.3,4c.3-.3,.4-.5,.8-1.1h0l-.4-.2h0c-.1,.5-.6,.9-.7,1h0l.3,.3h0Z"/><path d="M20.3,3.7h0l-.4-.1h0c-.1,.6-.6,1.2-.8,1.4h0l.3,.3h0c0-.1,.2-.2,.3-.4l.4,1.8h0l.4-.1-.4-2.2c0-.1,.1-.3,.2-.7h0Z"/><path d="M23,5.5h-.4v.2c0,.1-.4,.1-.5,.2h-.1c-.1,0-.2,0-.3-.1v-.4h-.4l.1,.3h0c0,.2,.1,.4,.1,.5s.2,.1,.3,.1c.2,0,.4-.1,.6-.1h.1c.3-.1,.4-.1,.5-.3,0-.1-.1-.3,0-.4h0Z"/></g><g><path d="M28.1,3h0l.2-.3h0c-.2-.2-.4-.3-.6-.5h0l-.2,.3h0c.3,.2,.4,.3,.6,.5h0Z"/><path d="M28,4.8l-.3-.2h0c-.3,.7-.7,1-.9,1.2h0l.4,.3h0c.2-.4,.5-.7,.8-1.3h0Z"/><path d="M27.8,4h0l.2-.3h0c-.3-.3-.4-.4-.5-.4h0l-.2,.3h0s.3,.2,.5,.4h0Z"/><path d="M30.3,5.2l-1.5-.3,.1-.2-.5-.1h0s0,.4-.1,.8-.4,.6-.5,.6h0l.2,.3h0c.2-.1,.3-.2,.5-.5l1.6,.3-.1,.5,.4,.1,.3-1.5c0-.1,0-.2,.1-.2h0l-.4-.1-.1,.3h0Zm-.1,.6l-1.5-.3,.1-.3,1.5,.3-.1,.3h0Z"/><path d="M30.1,2.9v-.2l.1-.2-.4-.1v.4l-1.3-.2-.1,.4,1.1,.2-.3,.1,.1,.2-1-.2v.3h.2c-.1,.4-.5,.5-.6,.6h0l.2,.3h0c.4-.1,.6-.5,.7-.7h.1c0,.1-.1,.4-.2,.5h-.2v.3h0c.1,0,.3,.1,.4,0s.2-.4,.3-.8l.1,.3-.1,.7,.4,.1,.3-.9,.6-.5-.2-.2,1,.2,.1-.3-1.3-.3h0Zm0,.4l-.3,.4-.2-.5,.5,.1h0Z"/><path d="M31,4l.2-.1-.2-.3h0s-.2,.1-.3,.1h-.5v.2l-.1,.4h-.1l.1,.4,.7-.1c.1,.3,.2,.5,.2,.5h0l.3-.2h0c-.3-.4-.3-.8-.3-.9h0Zm-.3,.4h-.2l.1-.4h.1v.4Z"/></g><path d="M37.3,7l.4-.7,.3-.3-.5-.3-.2,.4-.4,.7-.5-.3,.4-.7c.1-.2,.2-.3,.2-.3l-.4-.3-.2,.4-.4,.7-.5-.3,.5-.7c.1-.2,.2-.2,.2-.2l-.5-.3-.1,.3-.4,.6-.5-.3-.2,.4,.5,.3-1.1,1.8,2.6,1.6,.2-.4-2.2-1.3,.9-1.5,.5,.3-.7,1.1,1.3,.8,.7-1.1,.7,.4,.1-.4-.7-.4h0Zm-1,.8l-.5-.3,.4-.7,.5,.3-.4,.7Z"/><g><path d="M43.6,12l-.2-.3h0c-.1,.1-.3,.1-.4,.1-.2-.1-.3-.2-.4-.3h0l-.3,.2,.4,.5-1.8,1.3,.3,.4,2.4-1.9h0Z"/><path d="M43.2,16c.5-.1,1.2-.5,1.5-.8,.4-.4,.4-.9,.2-1.3-.2-.2-.4-.4-.7-.5s-.6,0-.8,.1c-.5,.3-.7,.9-.5,1.4,.1,.2,.3,.4,.6,.5-.1,.1-.3,.1-.5,.2-.2,0-.5,0-.7-.2-.2-.3,0-.6,.1-.7h0l-.2-.4h0c-.4,.3-.6,.9-.3,1.4,.2,.4,.5,.5,1,.5,.2-.2,.3-.2,.3-.2h0Zm.5-2.1c.1-.1,.2-.1,.4-.1h.1c.2,0,.3,.1,.3,.3,.1,.1,.1,.3,0,.4s-.2,.3-.3,.4c-.3,.2-.7,.1-.8-.2-.2-.3,0-.6,.3-.8h0Z"/><path d="M44.8,17.3c.6,0,1.1,.1,1.3,.2h0l.4-.2-.8-1.9-.4,.2,.6,1.4c-.3-.1-.9-.1-1.4-.2-.6,0-1.2,.1-1.5,.2h0l.2,.5h0c.2-.1,.9-.2,1.6-.2Z"/><path d="M47,18.8c-.2-.6-.7-.9-1.3-.7-.6,.2-.9,.7-.8,1.2,.1,.2,.2,.5,.5,.6-.2,0-.3,.1-.5,.1s-.5-.1-.6-.4,.1-.6,.3-.7h0l-.1-.5h0c-.4,.2-.8,.7-.6,1.2,.1,.5,.5,.7,1.1,.8h.1c.5,0,1.2-.2,1.5-.5,.4-.2,.6-.6,.4-1.1h0Zm-.4,.6c-.1,.1-.2,.2-.4,.3-.4,.1-.7,0-.8-.4,0-.1,0-.3,.1-.4s.2-.2,.4-.3h.2c.1,0,.2,0,.3,.1l.3,.3c0,.1-.1,.3-.1,.4h0Z"/></g></g><g><rect x="99.9" y="9.6" width="3" height="21.8"/><polygon points="95.4 14.8 92.2 14.8 92.2 17.9 95.4 17.9 95.4 31.4 98.4 31.4 98.4 9.6 95.4 9.6 95.4 14.8"/><polygon points="148.5 9.6 145.1 9.6 145.1 21.7 148.5 21.7 148.5 17.3 151.4 17.3 151.4 14.3 148.5 14.3 148.5 9.6"/><path d="M140.1,20.1c1.1-1,1.7-2.3,1.7-3.8,0-1.2-.4-2.3-1.2-3.3l-.1-.1h1.9v-2.7h-4.6v-1.7h-3.5v1.7h-4.6v2.7h1.9l-.1,.1c-.8,.9-1.2,2-1.2,3.3,0,1.5,.6,2.8,1.7,3.8s2.5,1.6,4,1.6,3-.6,4.1-1.6h0Zm-6.8-3.8c0-.8,.3-1.4,.8-2,.5-.5,1.2-.8,1.9-.8s1.4,.3,1.9,.8,.8,1.2,.8,2-.3,1.4-.8,2c-.5,.5-1.2,.8-1.9,.8s-1.4-.3-1.9-.8c-.5-.6-.8-1.2-.8-2Z"/><rect x="75.3" y="9.6" width="3.1" height="15.1"/><path d="M70.8,20c1.2-1.2,1.9-2.6,1.9-4.3s-.6-3.2-1.9-4.4-2.8-1.8-4.6-1.8-3.3,.6-4.6,1.8-1.9,2.6-1.9,4.4,.6,3.2,1.9,4.3,2.8,1.8,4.6,1.8,3.4-.6,4.6-1.8Zm-7.7-4.4c0-.9,.3-1.7,.9-2.3,.6-.6,1.4-.9,2.2-.9s1.6,.3,2.2,.9c.6,.6,.9,1.4,.9,2.3s-.3,1.7-.9,2.3c-.6,.6-1.4,.9-2.2,.9s-1.6-.3-2.2-.9c-.6-.6-.9-1.4-.9-2.3Z"/><polygon points="165.4 27.3 165.4 21.7 162.1 21.7 162.1 27.3 159.8 27.3 159.8 21.7 156.5 21.7 156.5 27.3 152.4 27.3 152.4 30.5 173.4 30.5 173.4 27.3 165.4 27.3"/><path d="M65.6,27.7v-3.2h-3.6v4.5c0,1,.8,1.8,1.8,1.8h14.6v-3c0-.1-12.8-.1-12.8-.1Z"/><path d="M116.7,13v-3h-9.8v13.3c0,.9,.8,1.7,1.7,1.7h9.6v6.5h3.1v-13.6h1.4v13.5h3V9.6h-3v5.2h-1.4v-5.2h-3.1v12.3h-7.9V13h6.4Z"/><path d="M146.9,23.1h-14.6v3h12.5v5.5h3.6v-7c0-.8-.6-1.5-1.5-1.5Z"/><path d="M169.9,9.9h-15.2v3.1h13.2v11.7h3.6V11.4c-.1-.8-.8-1.5-1.6-1.5h0Z"/><g><path d="M60.4,34.4h2.1v9.5h-2.1v-9.5Z"/><path d="M64.3,34.4h2.1l4,6.4h0v-6.4h1.9v9.5h-2.1l-3.9-6.3h0v6.3h-1.9l-.1-9.5h0Z"/><path d="M79.7,40.9c0,.4,0,.7-.1,1.1-.1,.3-.2,.7-.4,1-.2,.3-.5,.6-1,.8s-1,.3-1.6,.3c-.4,0-.8-.1-1.2-.2-.4-.1-.7-.3-1-.5s-.5-.5-.7-.9-.2-.8-.2-1.3v-.8h1.9v.4c0,.5,.1,.9,.3,1.2,.2,.3,.5,.4,.9,.4,.3,0,.5,0,.6-.1,.2-.1,.3-.2,.3-.4s.1-.3,.1-.5v-7h2.1v6.5h0Z"/><path d="M81.6,34.4h7.1v1.8h-5v2h4.6v1.6h-4.6v2.3h5.1v1.8h-7.2v-9.5h0Z"/><path d="M101.9,40.4c0,1.3-.3,2.2-1.1,2.8-.7,.6-1.7,1-3,1s-2.3-.3-3-1c-.7-.6-1.1-1.6-1.1-2.9v-5.9h2.1v5.9c0,.3,0,.6,.1,.8s.1,.5,.3,.6c.1,.2,.3,.3,.6,.5s.6,.2,1,.2c.7,0,1.2-.2,1.5-.5s.4-.8,.4-1.6v-5.9h2.1l.1,6h0Z"/><path d="M103.7,34.4h2.1l4,6.4h0v-6.4h2v9.5h-2.1l-3.9-6.3h0v6.3h-1.9c-.2,0-.2-9.5-.2-9.5Z"/><path d="M113.6,34.4h2.1v9.5h-2.1v-9.5Z"/><path d="M121.9,43.9h-2.3l-3.1-9.5h2.2l2.1,6.7h0l2.1-6.7h2.2l-3.2,9.5Z"/><path d="M125.9,34.4h7.1v1.8h-5v2h4.6v1.6h-4.6v2.3h5.1v1.8h-7.2v-9.5h0Z"/><path d="M140.4,43.9c0-1,0-1.5-.1-2.3-.1-.5-.2-.9-.5-1.1-.2-.2-.6-.3-1.1-.3h-2.1v3.7h-2.1v-9.5h5.1c.4,0,.8,.1,1.1,.2,.4,.1,.6,.3,.9,.6,.2,.2,.4,.5,.6,.8,.1,.3,.2,.7,.2,1,0,.6-.1,1.1-.4,1.5-.2,.4-.6,.7-1.1,.9h0c.5,.1,.8,.4,1,.8s.6,1,.6,3.7h-2.1Zm-3.8-5.2h2.3c.5,0,.8-.1,1.1-.3,.2-.2,.4-.6,.4-1s-.1-.8-.4-1c-.2-.2-.6-.3-1.1-.3h-2.3v2.6Z"/><path d="M145.5,40.8c0,.6,.2,1,.6,1.3,.4,.3,.9,.4,1.5,.4h.6c.2,0,.4-.1,.6-.2s.3-.2,.5-.4c.1-.2,.2-.3,.2-.6,0-.2-.1-.4-.2-.5-.1-.2-.3-.3-.5-.4l-.6-.3c-.2-.1-.5-.2-.9-.2-.3-.1-.5-.1-.6-.2-.4-.1-.8-.2-1.1-.4-.3-.1-.6-.3-.9-.5-.3-.2-.5-.5-.6-.8-.2-.3-.2-.7-.2-1.1,0-.5,.1-.9,.3-1.2s.5-.7,.8-.9,.7-.4,1.1-.5c.4-.1,.9-.2,1.3-.2,.5,0,1,.1,1.5,.2,.5,.1,.9,.3,1.2,.5,.4,.2,.6,.6,.8,1s.3,.8,.3,1.4h-2c0-.5-.2-.9-.5-1.1-.3-.2-.8-.3-1.3-.3-.4,0-.7,.1-1,.3s-.4,.5-.4,.8c0,.2,0,.3,.1,.5s.2,.2,.4,.3,.4,.2,.7,.3,.8,.2,1.4,.4c0,0,.1,0,.2,.1h.1l.9,.3c.3,.1,.5,.2,.8,.5,.3,.2,.5,.5,.7,.8s.3,.8,.3,1.2c0,.9-.4,1.6-1,2.2-.7,.6-1.7,.8-2.9,.8-.5,0-1.1-.1-1.5-.2s-.9-.3-1.3-.6c-.4-.3-.7-.6-.9-1.1s-.3-.9-.3-1.5l1.8-.1h0Z"/><path d="M152.7,34.4h2.1v9.5h-2.1v-9.5Z"/><path d="M158.8,36.2h-2.8v-1.8h7.8v1.8h-2.9v7.7h-2.1v-7.7h0Z"/><path d="M167.6,40.2l-3.5-5.8h2.4l2.2,3.8,2.2-3.8h2.3l-3.5,5.8v3.6h-2.1v-3.6h0Z"/></g><path d="M90.2,13h3.8v-3h-10.5v3h3.2c.1,1.2,.2,8-4.4,8.7v3h.1c.6,0,3.9-.2,6-3.2h0c2.1,3.1,5.4,3.2,6,3.2h.1v-3c-4.5-.7-4.4-7.5-4.3-8.7h0Z"/></g></g><rect class="cls-1" x="182.2" y="9.9" width=".9" height="34.1"/><g class="cls-2"><path d="M215.95,21.62h-8.8v3.59h12.12v2.49h-27.24v-2.49h12.05v-3.59h-8.77V11.43h20.44v2.49h-17.4v5.21h17.6v2.49Zm-2.62,9.44c1.82,.93,2.73,2.25,2.73,3.95s-.91,3.03-2.73,3.97c-1.82,.94-4.38,1.42-7.7,1.42s-5.85-.47-7.66-1.42-2.73-2.27-2.73-3.97,.92-2.96,2.74-3.92,4.38-1.43,7.65-1.43,5.88,.47,7.7,1.4Zm-7.7,1.09c-2.23,0-4,.26-5.3,.78-1.3,.52-1.95,1.23-1.95,2.12s.64,1.63,1.93,2.14c1.29,.51,3.06,.76,5.32,.76s4.07-.25,5.37-.76c1.3-.51,1.95-1.22,1.95-2.14s-.65-1.63-1.95-2.14-3.09-.76-5.37-.76Z"/><path d="M222.31,30.75c-1.29-1.97-1.93-4.54-1.93-7.71s.64-5.75,1.93-7.71c1.29-1.97,3.2-2.95,5.73-2.95s4.44,.98,5.71,2.95c1.28,1.97,1.92,4.55,1.92,7.75s-.64,5.71-1.92,7.68c-1.28,1.97-3.18,2.95-5.71,2.95s-4.44-.98-5.73-2.95Zm10.36-7.68c0-2.42-.4-4.37-1.21-5.85-.81-1.48-1.94-2.23-3.42-2.23s-2.61,.74-3.4,2.21c-.79,1.47-1.19,3.43-1.19,5.87s.4,4.33,1.19,5.8,1.93,2.21,3.4,2.21,2.61-.74,3.42-2.21c.81-1.47,1.21-3.41,1.21-5.8Zm15.4,1.66h-4.83v15.67h-3.07V10.23h3.07v11.98h4.83v2.52Z"/><path d="M267.01,29.76l.31,2.52c-3.66,.6-8.39,.93-14.19,1h-3.76v-11.88h11.29v-5.97h-11.43v-2.49h14.46v10.91h-11.29v6.83h.9c5.85,0,10.41-.31,13.7-.93Zm2.62-19.54h3.07v30.17h-3.07V10.23Z"/><path d="M278.11,14.32c1.48-1.46,3.35-2.19,5.61-2.19s4.12,.73,5.59,2.19c1.47,1.46,2.21,3.3,2.21,5.51s-.73,4.02-2.19,5.44c-1.46,1.42-3.33,2.12-5.61,2.12s-4.15-.7-5.63-2.11-2.21-3.21-2.21-5.42,.74-4.08,2.23-5.54Zm5.61,.47c-1.38,0-2.51,.48-3.4,1.43s-1.33,2.16-1.33,3.61,.44,2.6,1.33,3.52c.89,.92,2.02,1.38,3.4,1.38s2.57-.45,3.42-1.36,1.28-2.09,1.28-3.54-.43-2.68-1.28-3.62c-.85-.94-1.99-1.42-3.42-1.42Zm17.36,24.68h-20.19v-9.29h3.04v6.83h17.16v2.45Zm-3.69-22.54h-5.04l-.07-2.55h5.11v-4.14h3.07v21.92h-3.07v-7.7h-5.11l.07-2.52h5.04v-5.01Z"/><path d="M320.96,17.16h-17.54v-2.38h17.54v2.38Zm-1.62,6.11c0,1.43-.64,2.59-1.93,3.49-1.29,.9-2.98,1.35-5.07,1.35s-3.78-.44-5.06-1.33c-1.28-.88-1.92-2.05-1.92-3.5s.64-2.65,1.92-3.54c1.28-.89,2.96-1.33,5.06-1.33s3.79,.44,5.07,1.33c1.29,.89,1.93,2.07,1.93,3.54Zm7.56,16.81h-19.16v-10.91h3.04v2.97h13.08v-3h3.04v10.94Zm-10.39-27.17h-8.56v-2.42h8.56v2.42Zm-.21,10.36c0-.76-.39-1.38-1.17-1.85-.78-.47-1.71-.71-2.8-.71s-2.04,.24-2.81,.71c-.77,.47-1.16,1.09-1.16,1.85s.39,1.34,1.17,1.81c.78,.47,1.71,.71,2.8,.71s2.01-.24,2.8-.71c.78-.47,1.17-1.08,1.17-1.81Zm7.56,14.36v-3.07h-13.08v3.07h13.08Zm7.53-16.36h-4.49v6.39h-3.04V10.23h3.04v8.49h4.49v2.55Z"/><path d="M351.82,34.63c-2.9,.35-6.33,.63-10.29,.86-4.97,.21-8.14,.31-9.49,.31l-.52-2.55c2.62,0,5.42-.07,8.39-.21v-2.76c-1.73-.23-3.11-.79-4.14-1.69-1.04-.9-1.55-2-1.55-3.31,0-1.52,.68-2.74,2.04-3.68,1.36-.93,3.11-1.4,5.25-1.4s3.95,.46,5.3,1.38c1.35,.92,2.02,2.15,2.02,3.69,0,1.33-.53,2.46-1.6,3.37-1.07,.91-2.49,1.47-4.26,1.67v2.55c3.61-.16,6.48-.38,8.6-.66l.28,2.42Zm-1.24-15.98h-17.98v-2.45h17.98v2.45Zm-4.87-4.52h-8.73v-2.45h8.73v2.45Zm-1.24,13.05c.78-.51,1.17-1.14,1.17-1.9s-.39-1.39-1.17-1.9c-.78-.51-1.77-.76-2.97-.76s-2.15,.25-2.92,.76c-.77,.51-1.16,1.14-1.16,1.9s.39,1.39,1.16,1.9c.77,.51,1.74,.76,2.92,.76s2.19-.25,2.97-.76Zm11.98,13.22h-3.04V10.23h3.04v30.17Z"/><path d="M367.18,15.16v-2.49h16.5v2.49h-6.59v1c0,2,.74,3.81,2.21,5.44,1.47,1.62,3.14,2.72,5.01,3.3l-1.69,2.45c-1.38-.55-2.75-1.43-4.11-2.64-1.36-1.21-2.34-2.48-2.93-3.81-.46,1.4-1.44,2.81-2.93,4.21-1.5,1.4-3.05,2.44-4.66,3.11l-1.73-2.42c2.07-.74,3.88-2.01,5.42-3.81s2.31-3.72,2.31-5.75v-1.07h-6.8Zm21.56,15.1c1.78,1.05,2.68,2.48,2.68,4.3s-.89,3.24-2.66,4.28c-1.77,1.04-4.28,1.55-7.53,1.55s-5.69-.52-7.47-1.55c-1.78-1.04-2.68-2.46-2.68-4.28s.89-3.25,2.68-4.3c1.78-1.05,4.27-1.57,7.47-1.57s5.72,.52,7.51,1.57Zm-7.51,.95c-2.21,0-3.94,.29-5.18,.88-1.24,.59-1.86,1.41-1.86,2.47s.62,1.88,1.86,2.47c1.24,.59,2.97,.88,5.18,.88s3.97-.29,5.21-.88c1.24-.59,1.86-1.41,1.86-2.47s-.62-1.88-1.86-2.47c-1.24-.59-2.98-.88-5.21-.88Zm6.94-10.87h-5.63v-2.52h5.63v-7.59h3.07V28.94h-3.07v-8.6Z"/><path d="M418.31,28.28h-8.84v5.94h12.15v2.49h-27.24v-2.49h12.01v-5.94h-8.73V12.33h3.07v5.49h14.53v-5.49h3.04v15.95Zm-3.04-2.52v-5.45h-14.53v5.45h14.53Z"/><path d="M447.72,30.87l-1.83,2.28c-1.52-1.06-2.99-2.41-4.4-4.06-1.42-1.65-2.38-3.29-2.88-4.92-.53,1.84-1.47,3.65-2.83,5.42-1.36,1.77-2.9,3.22-4.62,4.35l-1.9-2.24c2.3-1.47,4.17-3.44,5.59-5.89,1.43-2.45,2.14-5.05,2.14-7.78v-5.14h3.18v5c0,2.72,.71,5.24,2.14,7.58,1.43,2.34,3.23,4.14,5.42,5.4Zm6.63,9.53h-3.04V10.23h3.04v30.17Z"/><path d="M484.52,36.32h-27.24v-2.49h27.24v2.49Zm-.83-10.8l-1.66,2.42c-2.37-.67-4.64-1.84-6.82-3.52-2.17-1.68-3.62-3.36-4.33-5.04-.6,1.7-1.99,3.39-4.18,5.06s-4.51,2.83-6.97,3.47l-1.55-2.49c1.7-.3,3.39-.93,5.07-1.9s3.11-2.21,4.3-3.73c1.19-1.52,1.78-3.08,1.78-4.69v-2.35h3.14v2.35c0,1.59,.62,3.15,1.86,4.69,1.24,1.54,2.71,2.8,4.4,3.78,1.69,.98,3.34,1.63,4.95,1.95Z"/><path d="M489.49,24.45h.69c3.96,0,6.9-.22,8.84-.66l.31,2.38c-2.32,.51-5.44,.76-9.35,.76h-3.52V12.26h11.32v2.49h-8.28v3.38h7.11v2.42h-7.11v3.9Zm21.16,15.53h-19.92v-10.42h19.92v10.42Zm-3.04-2.45v-5.52h-13.81v5.52h13.81Zm-2.76-9.84h-2.87v-7.46h-3.87v-2.45h3.87v-7.01h2.87V27.69Zm5.8,.31h-2.93V10.23h2.93V28Z"/></g></svg>